<?xml version="1.0" encoding="UTF-8" standalone="no"?>
<!-- Created with Inkscape (http://www.inkscape.org/) -->

<svg
   xmlns:dc="http://purl.org/dc/elements/1.1/"
   xmlns:cc="http://creativecommons.org/ns#"
   xmlns:rdf="http://www.w3.org/1999/02/22-rdf-syntax-ns#"
   xmlns:svg="http://www.w3.org/2000/svg"
   xmlns="http://www.w3.org/2000/svg"
   xmlns:sodipodi="http://sodipodi.sourceforge.net/DTD/sodipodi-0.dtd"
   xmlns:inkscape="http://www.inkscape.org/namespaces/inkscape"
   width="600"
   height="225"
   viewBox="0 0 158.75 59.531248"
   version="1.1"
   id="svg8"
   inkscape:version="0.92.4 5da689c313, 2019-01-14"
   sodipodi:docname="bg.svg">
  <defs
     id="defs2" />
  <sodipodi:namedview
     id="base"
     pagecolor="#ffffff"
     bordercolor="#666666"
     borderopacity="1.0"
     inkscape:pageopacity="0.0"
     inkscape:pageshadow="2"
     inkscape:zoom="0.70710678"
     inkscape:cx="861.93469"
     inkscape:cy="-16.155876"
     inkscape:document-units="mm"
     inkscape:current-layer="layer1"
     showgrid="false"
     units="px"
     inkscape:window-width="1920"
     inkscape:window-height="1016"
     inkscape:window-x="0"
     inkscape:window-y="27"
     inkscape:window-maximized="1" />
  <metadata
     id="metadata5">
    <rdf:RDF>
      <cc:Work
         rdf:about="">
        <dc:format>image/svg+xml</dc:format>
        <dc:type
           rdf:resource="http://purl.org/dc/dcmitype/StillImage" />
        <dc:title></dc:title>
      </cc:Work>
    </rdf:RDF>
  </metadata>
  <g
     inkscape:label="Capa 1"
     inkscape:groupmode="layer"
     id="layer1"
     transform="translate(0,-237.46877)">
    <rect
       style="fill:#808000;fill-opacity:1;fill-rule:nonzero;stroke:none;stroke-width:0.14217283;stroke-linecap:round;stroke-linejoin:round;stroke-miterlimit:4;stroke-dasharray:none;stroke-opacity:1"
       id="rect851"
       width="158.74825"
       height="59.541275"
       x="-0.00049284223"
       y="237.45906"
       ry="6.2177081" />
    <path
       style="fill:#000000;stroke-width:0.26458332"
       d="m 50.172959,267.23439 39.721918,-29.79108 2.9438,0.0751 2.943811,0.0751 -39.49072,29.63333 -39.490721,29.63334 -3.174999,0.0826 -3.175,0.0827 z m -27.109858,29.62555 c 0.0729,-0.0729 17.912465,-13.46743 39.643486,-29.76563 l 39.510953,-29.63308 h 3.04271 3.0427 l -39.665533,29.75915 -39.665537,29.75915 -3.02066,0.006 c -1.661362,0.004 -2.961016,-0.0532 -2.888119,-0.12607 z M 35.728203,296.628 c 0.213085,-0.20047 18.043163,-13.59886 39.622394,-29.7742 l 39.234973,-29.4097 2.94533,0.0747 2.94533,0.0747 -39.600192,29.69948 -39.600182,29.69948 h -2.967539 c -2.531711,0 -2.910639,-0.0535 -2.580114,-0.36448 z m 51.486424,-29.39361 39.721923,-29.79108 2.9438,0.0751 2.94381,0.0751 -39.490722,29.63333 -39.490723,29.63334 -3.175,0.0826 -3.175,0.0827 z m -27.10986,29.62555 c 0.0729,-0.0729 17.91247,-13.46743 39.64349,-29.76563 l 39.510953,-29.63308 h 3.0427 3.04271 l -39.66553,29.75915 -39.665543,29.75915 -3.02066,0.006 c -1.66136,0.004 -2.96102,-0.0532 -2.88812,-0.12607 z m 12.6651,-0.23194 c 0.21309,-0.20047 18.03803,-13.595 39.610983,-29.76563 37.81471,-28.3451 39.26397,-29.40093 40.34896,-29.39533 1.26448,0.007 3.60159,0.94276 3.22142,1.29048 -0.13416,0.12271 -17.65639,13.27577 -38.93829,29.22903 l -38.694373,29.00593 h -2.96806 c -2.53215,0 -2.91116,-0.0535 -2.58064,-0.36448 z M 121.4481,269.34027 c 26.11766,-19.58815 36.93162,-27.55481 37.0818,-27.31823 0.11661,0.18369 0.21383,1.13742 0.21606,2.11941 l 0.004,1.78542 -34.04276,25.53281 -34.042762,25.5328 h -3.043101 -3.04309 z m -24.200493,27.42179 c 0.13825,-0.12673 13.884023,-10.44231 30.546153,-22.92351 16.66214,-12.4812 30.44362,-22.81006 30.62552,-22.95302 0.25911,-0.20364 0.33073,0.23402 0.33073,2.02098 v 2.2809 l -27.86955,20.90254 -27.86956,20.90253 h -3.00732 c -1.723643,0 -2.900033,-0.0984 -2.755973,-0.23042 z m 12.563933,-0.13381 c 0.21309,-0.20033 11.16259,-8.43237 24.33222,-18.29343 13.16964,-9.86106 24.09362,-18.04611 24.27552,-18.189 0.2591,-0.20353 0.33073,0.23405 0.33073,2.0203 v 2.28009 l -21.69415,16.27314 -21.69416,16.27313 h -2.96879 c -2.5319,0 -2.91178,-0.0536 -2.58137,-0.36423 z m 11.91885,0.2667 c 0.0606,-0.0536 8.26603,-6.20293 18.23421,-13.6651 9.96817,-7.46217 18.27278,-13.68364 18.45468,-13.8255 0.25895,-0.20194 0.33073,0.23697 0.33073,2.02232 v 2.28024 l -15.52158,11.64279 -15.52159,11.64278 h -3.04334 c -1.67384,0 -2.99374,-0.0439 -2.93311,-0.0975 z m 12.6874,-0.26603 c 0.41842,-0.39265 23.4543,-17.65736 24.00149,-17.98841 0.25441,-0.15391 0.33073,0.32223 0.33073,2.06314 v 2.26324 l -9.34894,7.01279 -9.34895,7.0128 h -3.01088 c -2.56529,0 -2.95353,-0.0538 -2.62345,-0.36356 z m 17.98222,-4.26665 c 3.39614,-2.54661 6.21422,-4.63021 6.2624,-4.63021 0.0482,0 0.0876,1.00837 0.0876,2.24081 v 2.24081 l -3.1642,2.3894 -3.16421,2.3894 h -3.09819 -3.0982 z M 3.1747287,296.21451 c -0.509475,-0.2695 -1.14537,-0.73205 -1.413101,-1.02789 -0.48251,-0.53317 -0.152072,-0.78894 37.6477183,-29.14021 l 38.134501,-28.60232 2.94586,0.0747 2.94586,0.0747 -39.425307,29.56719 C 22.32634,283.42266 4.4760727,296.72263 4.3429997,296.7162 c -0.133074,-0.006 -0.658795,-0.23219 -1.168271,-0.50169 z m -3.16307695,-7.62178 0.01165,-2.31588 32.46595825,-24.34166 32.465957,-24.34167 3.16945,-0.0827 c 1.74321,-0.0455 3.11242,-0.0328 3.04271,0.0282 -0.0697,0.061 -16.110883,12.09405 -35.647055,26.74019 L 1.075e-5,290.90857 Z m -2.05e-4,-9.2383 0.01144,-2.33799 26.41561225,-19.78656 26.415615,-19.78657 2.958589,0.0751 2.958594,0.0751 -28.380589,21.29896 C 14.781385,270.60691 1.5578457,280.52916 1.0050637,280.94193 L 5.75e-6,281.69242 Z m 1.88e-4,-9.2519 0.01163,-2.34651 20.22817625,-15.14739 20.228177,-15.1474 h 3.08718 3.087179 L 24.186887,254.306 c -12.3569,9.26463 -22.8540423,17.13688 -23.32698525,17.49391 l -0.859896,0.64913 z m -2.73e-4,-9.25942 0.01136,-2.3475 14.05637725,-10.51719 14.056379,-10.51719 h 3.050807 c 1.744361,0 2.94317,0.0985 2.799453,0.22999 -0.138244,0.1265 -7.69276,5.79882 -16.787812,12.60516 -9.0950513,6.80634 -16.68528525,12.49195 -16.86718625,12.6347 -0.259398,0.20355 -0.32828,-0.24678 -0.319374,-2.08797 z m -4.6e-4,-9.26141 0.0109,-2.34651 7.89731395,-5.89592 7.8973133,-5.89592 2.985335,0.0751 2.985336,0.0751 -10.033649,7.51846 c -5.5185073,4.13512 -10.4206023,7.81042 -10.89354525,8.16731 L 9.75e-6,253.9282 Z m -0.0051,-8.0698 c 0.0064,-1.27882 0.772023,-3.19594 1.66425695,-4.16746 1.153057,-1.25551 2.999945,-1.87779 5.581556,-1.88063 l 2.356832,-0.003 -3.944332,2.95596 c -2.169383,1.62577 -4.331285,3.24725 -4.80422795,3.60327 l -0.859896,0.64733 z"
       id="path826"
       inkscape:connector-curvature="0" />
    <rect
       style="fill:none;fill-opacity:1;fill-rule:nonzero;stroke:none;stroke-width:0.2;stroke-linecap:round;stroke-linejoin:round;stroke-miterlimit:4;stroke-dasharray:none;stroke-opacity:1"
       id="rect847"
       width="159.01125"
       height="59.857674"
       x="-0.26726952"
       y="237.13165" />
  </g>
</svg>
