<?xml version="1.0" encoding="UTF-8" standalone="no"?>
<!-- Created with Inkscape (http://www.inkscape.org/) -->

<svg
   xmlns:dc="http://purl.org/dc/elements/1.1/"
   xmlns:cc="http://creativecommons.org/ns#"
   xmlns:rdf="http://www.w3.org/1999/02/22-rdf-syntax-ns#"
   xmlns:svg="http://www.w3.org/2000/svg"
   xmlns="http://www.w3.org/2000/svg"
   xmlns:sodipodi="http://sodipodi.sourceforge.net/DTD/sodipodi-0.dtd"
   xmlns:inkscape="http://www.inkscape.org/namespaces/inkscape"
   width="80mm"
   height="20mm"
   viewBox="0 0 80 20.000013"
   version="1.1"
   id="svg8"
   inkscape:version="0.92.4 5da689c313, 2019-01-14"
   sodipodi:docname="miniplayer.svg">
  <defs
     id="defs2" />
  <sodipodi:namedview
     id="base"
     pagecolor="#ffffff"
     bordercolor="#666666"
     borderopacity="1.0"
     inkscape:pageopacity="0.0"
     inkscape:pageshadow="2"
     inkscape:zoom="1.4"
     inkscape:cx="290.61648"
     inkscape:cy="2.6499845"
     inkscape:document-units="mm"
     inkscape:current-layer="layer1"
     showgrid="false"
     units="mm"
     inkscape:window-width="1600"
     inkscape:window-height="836"
     inkscape:window-x="0"
     inkscape:window-y="27"
     inkscape:window-maximized="1" />
  <metadata
     id="metadata5">
    <rdf:RDF>
      <cc:Work
         rdf:about="">
        <dc:format>image/svg+xml</dc:format>
        <dc:type
           rdf:resource="http://purl.org/dc/dcmitype/StillImage" />
        <dc:title></dc:title>
      </cc:Work>
    </rdf:RDF>
  </metadata>
  <g
     inkscape:label="Capa 1"
     inkscape:groupmode="layer"
     id="layer1"
     transform="translate(0,-276.99947)">
    <path
       style="fill:#ffa500;fill-opacity:1;stroke-width:0.23237872"
       d="m 29.919257,294.07376 c -4.096621,-1.33339 -6.201291,-5.89207 -4.496511,-9.73936 0.597526,-1.34851 2.31793,-3.06319 3.712796,-3.70047 1.518583,-0.69379 4.154646,-0.69379 5.673229,0 1.39839,0.63891 3.107532,2.3451 3.747526,3.74107 0.695002,1.51598 0.695002,4.14749 0,5.66347 -0.642859,1.40222 -2.3587,3.11111 -3.733287,3.7181 -1.365805,0.60311 -3.584385,0.74663 -4.903753,0.31727 z m 1.471449,-6.86702 v -2.67006 h -1.0466 -1.04661 l -0.06673,2.42219 c -0.03662,1.33221 -0.01145,2.56589 0.05601,2.74154 0.08413,0.21862 0.434693,0.2967 1.113356,0.24795 l 0.99059,-0.0716 z m 3.25611,0 v -2.67006 h -1.04661 -1.0466 l -0.06672,2.42219 c -0.03662,1.33221 -0.01145,2.56589 0.05601,2.74154 0.08413,0.21862 0.434683,0.2967 1.113355,0.24795 l 0.990587,-0.0716 z m -26.2876102,4.17918 -1.4532391,-1.39307 h -1.503639 c -0.859391,0 -1.623221,-0.11922 -1.782734,-0.27842 -0.380154,-0.37935 -0.380154,-4.63558 0,-5.01508 0.160585,-0.16035 0.929673,-0.27842 1.811231,-0.27842 h 1.532135 l 1.1541521,-1.17834 c 1.438771,-1.46894 1.8876582,-1.73136 2.3319122,-1.36328 0.271496,0.22509 0.33399,1.21874 0.33399,5.30976 0,6.38758 -0.04948,6.47328 -2.4238192,4.19723 z m 39.4671092,2.77286 c -4.096621,-1.3334 -6.201291,-5.89208 -4.496511,-9.73937 0.597526,-1.34851 2.31793,-3.06319 3.712796,-3.70047 1.518583,-0.69379 4.154646,-0.69379 5.673232,0 1.39839,0.63888 3.10753,2.3451 3.74752,3.74107 0.69501,1.51598 0.69501,4.1475 0,5.66348 -0.64286,1.40225 -2.3587,3.11106 -3.73328,3.7181 -1.365809,0.60311 -3.584389,0.74662 -4.903757,0.31726 z m 2.893803,-4.69157 c 2.728304,-1.56386 3.133034,-1.94004 2.677154,-2.48838 -0.49528,-0.59576 -5.387984,-3.4342 -5.78765,-3.35765 -0.359095,0.0689 -0.412424,0.45823 -0.469889,3.43062 -0.03586,1.84414 -0.01259,3.48843 0.05082,3.65392 0.205796,0.53536 0.79642,0.32831 3.529543,-1.23851 z m 10.914834,3.52501 c -0.3681,-0.21405 -0.40702,-0.72453 -0.40702,-5.33806 v -5.10135 l 0.57475,-0.26128 c 0.52544,-0.2388 0.70602,-0.14396 2.10405,1.10784 0.84108,0.75306 2.04769,1.82681 2.68134,2.38612 l 1.15209,1.01685 v -2.12469 c 0,-2.04524 0.0217,-2.13466 0.58581,-2.39114 0.50891,-0.23157 0.66922,-0.18892 1.22104,0.32298 0.34937,0.32412 1.52483,1.38991 2.61214,2.36825 l 1.97693,1.77878 0.11629,-2.27094 0.11629,-2.27098 h 0.81402 0.81403 v 5.4562 5.45621 h -0.81403 -0.81402 l -0.11629,-2.29734 -0.11629,-2.29738 -1.86064,1.70337 c -1.02334,0.93687 -2.19816,2.01477 -2.61069,2.39534 -0.65851,0.60749 -0.82066,0.65982 -1.32849,0.42882 -0.54647,-0.24871 -0.58211,-0.38011 -0.6454,-2.37987 l -0.067,-2.11677 -2.55838,2.33486 c -1.4071,1.28414 -2.66303,2.33397 -2.79094,2.33291 -0.12793,-9.2e-4 -0.41574,-0.10855 -0.6396,-0.23843 z"
       id="path826"
       inkscape:connector-curvature="0"
       sodipodi:nodetypes="ccccccsccccccccccccccccccccccsccscccscccccccccccccccccccscccccsccccccccccccccccccccccc" />
  </g>
</svg>
