<?xml version="1.0" encoding="UTF-8" standalone="no"?>
<!-- Created with Inkscape (http://www.inkscape.org/) -->

<svg
   xmlns:dc="http://purl.org/dc/elements/1.1/"
   xmlns:cc="http://creativecommons.org/ns#"
   xmlns:rdf="http://www.w3.org/1999/02/22-rdf-syntax-ns#"
   xmlns:svg="http://www.w3.org/2000/svg"
   xmlns="http://www.w3.org/2000/svg"
   xmlns:sodipodi="http://sodipodi.sourceforge.net/DTD/sodipodi-0.dtd"
   xmlns:inkscape="http://www.inkscape.org/namespaces/inkscape"
   width="600"
   height="190"
   viewBox="0 0 158.75 50.270865"
   version="1.1"
   id="svg8"
   inkscape:version="0.92.4 5da689c313, 2019-01-14"
   sodipodi:docname="player.svg">
  <defs
     id="defs2" />
  <sodipodi:namedview
     id="base"
     pagecolor="#ffffff"
     bordercolor="#666666"
     borderopacity="1.0"
     inkscape:pageopacity="0.0"
     inkscape:pageshadow="2"
     inkscape:zoom="0.98994949"
     inkscape:cx="291.21275"
     inkscape:cy="7.6833157"
     inkscape:document-units="mm"
     inkscape:current-layer="layer1"
     showgrid="false"
     units="px"
     inkscape:window-width="1600"
     inkscape:window-height="836"
     inkscape:window-x="0"
     inkscape:window-y="27"
     inkscape:window-maximized="1" />
  <metadata
     id="metadata5">
    <rdf:RDF>
      <cc:Work
         rdf:about="">
        <dc:format>image/svg+xml</dc:format>
        <dc:type
           rdf:resource="http://purl.org/dc/dcmitype/StillImage" />
        <dc:title />
      </cc:Work>
    </rdf:RDF>
  </metadata>
  <g
     inkscape:label="Capa 1"
     inkscape:groupmode="layer"
     id="layer1"
     transform="translate(0,-246.72864)">
    <path
       style="fill:#ffa500;fill-opacity:1;stroke-width:0.23237872"
       d="m 77.733245,294.45174 c -4.096621,-1.33339 -6.201291,-5.89207 -4.496511,-9.73936 0.597526,-1.34851 2.31793,-3.06319 3.712796,-3.70047 1.518583,-0.69379 4.154646,-0.69379 5.673229,0 1.39839,0.63891 3.107532,2.3451 3.747526,3.74107 0.695002,1.51598 0.695002,4.14749 0,5.66347 -0.642859,1.40222 -2.3587,3.11111 -3.733287,3.7181 -1.365805,0.60311 -3.584385,0.74663 -4.903753,0.31727 z m 1.471449,-6.86702 v -2.67006 h -1.0466 -1.04661 l -0.06673,2.42219 c -0.03662,1.33221 -0.01145,2.56589 0.05601,2.74154 0.08413,0.21862 0.434693,0.2967 1.113356,0.24795 l 0.99059,-0.0716 z m 3.25611,0 v -2.67006 h -1.04661 -1.0466 l -0.06672,2.42219 c -0.03662,1.33221 -0.01145,2.56589 0.05601,2.74154 0.08413,0.21862 0.434683,0.2967 1.113355,0.24795 l 0.990587,-0.0716 z M 6.6583132,291.7639 5.2050741,290.37083 h -1.503639 c -0.8593911,0 -1.6232211,-0.11922 -1.7827341,-0.27842 -0.3801541,-0.37935 -0.3801541,-4.63558 0,-5.01508 0.1605851,-0.16035 0.9296725,-0.27842 1.8112305,-0.27842 h 1.5321352 l 1.1541519,-1.17834 c 1.4387716,-1.46894 1.887658,-1.73136 2.3319127,-1.36328 0.2714952,0.22509 0.3339895,1.21874 0.3339895,5.30976 0,6.38758 -0.049484,6.47328 -2.4238191,4.19723 z M 77.733245,264.26849 c -4.096621,-1.3334 -6.201291,-5.89208 -4.496511,-9.73937 0.597526,-1.34851 2.31793,-3.06319 3.712796,-3.70047 1.518583,-0.69379 4.154646,-0.69379 5.673229,0 1.39839,0.63888 3.107532,2.3451 3.747526,3.74107 0.695002,1.51598 0.695002,4.1475 0,5.66348 -0.642859,1.40225 -2.3587,3.11106 -3.733287,3.7181 -1.365805,0.60311 -3.584385,0.74662 -4.903753,0.31726 z m 2.893803,-4.69157 c 2.728301,-1.56386 3.133037,-1.94004 2.677157,-2.48838 -0.495283,-0.59576 -5.387987,-3.4342 -5.787653,-3.35765 -0.359095,0.0689 -0.412424,0.45823 -0.469889,3.43062 -0.03586,1.84414 -0.01259,3.48843 0.05082,3.65392 0.205796,0.53536 0.79642,0.32831 3.529543,-1.23851 z m -77.9470274,3.11617 c -0.065585,-0.17063 -0.091033,-2.65875 -0.056542,-5.52907 l 0.062723,-5.21877 h 0.8140276 0.8140237 l 0.1162897,2.29269 0.1162896,2.29266 1.7443448,-1.58142 c 0.9593896,-0.86979 2.1337167,-1.94579 2.6096229,-2.39114 0.7759549,-0.72609 0.9260137,-0.78204 1.4536171,-0.54206 0.566614,0.25785 0.588339,0.34545 0.588339,2.379 v 2.11143 l 0.67258,-0.53923 c 0.369929,-0.2967 1.576404,-1.3644 2.681075,-2.37298 1.859651,-1.69785 2.051108,-1.81436 2.583527,-1.57216 l 0.575031,0.26166 v 5.11787 5.11788 l -0.574913,0.26166 c -0.529377,0.24071 -0.715212,0.13483 -2.346102,-1.34002 -0.974151,-0.8808 -2.18069,-1.94972 -2.681194,-2.3753 l -0.910004,-0.77386 v 2.11384 c 0,2.03366 -0.02213,2.12396 -0.585821,2.38029 -0.5089123,0.23157 -0.6692112,0.18891 -1.2210377,-0.32298 -0.3493649,-0.32412 -1.5248366,-1.38991 -2.612141,-2.36825 l -1.9769241,-1.77879 -0.1162896,2.27095 -0.1162897,2.27098 -0.7574775,0.0727 c -0.4738231,0.0457 -0.8021506,-0.0434 -0.8767622,-0.23728 z m 37.9165654,-2.27075 c -1.662937,-1.39178 -3.054434,-2.72601 -3.092217,-2.96497 -0.04944,-0.31308 0.817332,-1.16965 3.097338,-3.06148 2.902846,-2.40863 3.212379,-2.60592 3.72358,-2.3734 0.526948,0.23957 0.56119,0.38091 0.623925,2.57359 l 0.06638,2.32 3.096224,-2.57408 c 2.858134,-2.37618 3.139816,-2.55431 3.663116,-2.31627 l 0.566897,0.25785 v 5.11788 5.11788 l -0.566897,0.25785 c -0.523304,0.23804 -0.804974,0.0598 -3.663116,-2.31631 l -3.096224,-2.57415 -0.06383,2.25327 c -0.05044,1.78087 -0.145095,2.31417 -0.451466,2.54353 -0.213197,0.15958 -0.498477,0.28565 -0.633928,0.27956 -0.135442,-0.008 -1.606857,-1.14917 -3.269799,-2.54094 z m 67.040904,2.30065 c -0.36811,-0.21405 -0.40702,-0.72453 -0.40702,-5.33806 v -5.10135 l 0.57286,-0.26051 c 0.616,-0.28032 0.49442,-0.36374 5.29976,3.64093 l 1.56991,1.30829 v -2.34433 c 0,-2.2743 0.0171,-2.35222 0.5805,-2.60836 0.46271,-0.21062 0.66329,-0.19348 0.98846,0.0834 0.22438,0.1912 1.64303,1.37201 3.15256,2.62416 2.05962,1.70848 2.72714,2.39313 2.67466,2.7433 -0.0404,0.2689 -1.37979,1.54641 -3.16345,3.01684 -2.84141,2.34232 -3.13928,2.52937 -3.6549,2.29483 -0.5312,-0.24148 -0.56494,-0.37897 -0.62775,-2.55839 l -0.0664,-2.30305 -3.02354,2.52262 c -1.66293,1.38744 -3.12817,2.52122 -3.25609,2.51946 -0.12793,-0.002 -0.41574,-0.10969 -0.6396,-0.23995 z m 34.88684,0 c -0.3681,-0.21405 -0.40702,-0.72453 -0.40702,-5.33806 v -5.10135 l 0.57475,-0.26128 c 0.52544,-0.2388 0.70602,-0.14396 2.10405,1.10784 0.84108,0.75306 2.04769,1.82681 2.68134,2.38612 l 1.15209,1.01685 v -2.12469 c 0,-2.04524 0.0217,-2.13466 0.58581,-2.39114 0.50891,-0.23157 0.66922,-0.18892 1.22104,0.32298 0.34937,0.32412 1.52483,1.38991 2.61214,2.36825 l 1.97693,1.77878 0.11629,-2.27094 0.11629,-2.27098 h 0.81402 0.81403 v 5.4562 5.45621 h -0.81403 -0.81402 l -0.11629,-2.29734 -0.11629,-2.29738 -1.86064,1.70337 c -1.02334,0.93687 -2.19816,2.01477 -2.61069,2.39534 -0.65851,0.60749 -0.82066,0.65982 -1.32849,0.42882 -0.54647,-0.24871 -0.58211,-0.38011 -0.6454,-2.37987 l -0.067,-2.11677 -2.55838,2.33486 c -1.4071,1.28414 -2.66303,2.33397 -2.79094,2.33291 -0.12793,-9.2e-4 -0.41574,-0.10855 -0.6396,-0.23843 z"
       id="path826"
       inkscape:connector-curvature="0"
       sodipodi:nodetypes="ccccccsccccccccccccccccccccccsccscccsccccccccccccccccccccccccccccscccccccccccscccccccccccscccccccccccccccccsccccscccccccccccccscccccsccccccccccccccccccccccc" />
  </g>
</svg>
