<?xml version="1.0" encoding="UTF-8" standalone="no"?>
<!-- Created with Inkscape (http://www.inkscape.org/) -->

<svg
   xmlns:dc="http://purl.org/dc/elements/1.1/"
   xmlns:cc="http://creativecommons.org/ns#"
   xmlns:rdf="http://www.w3.org/1999/02/22-rdf-syntax-ns#"
   xmlns:svg="http://www.w3.org/2000/svg"
   xmlns="http://www.w3.org/2000/svg"
   xmlns:sodipodi="http://sodipodi.sourceforge.net/DTD/sodipodi-0.dtd"
   xmlns:inkscape="http://www.inkscape.org/namespaces/inkscape"
   width="40"
   height="60"
   viewBox="0 0 10.583332 15.875"
   version="1.1"
   id="svg912"
   inkscape:version="0.92.4 5da689c313, 2019-01-14"
   sodipodi:docname="volumen.svg">
  <defs
     id="defs906" />
  <sodipodi:namedview
     id="base"
     pagecolor="#ffffff"
     bordercolor="#666666"
     borderopacity="1.0"
     inkscape:pageopacity="0.0"
     inkscape:pageshadow="2"
     inkscape:zoom="5.6"
     inkscape:cx="52.873196"
     inkscape:cy="41.736446"
     inkscape:document-units="mm"
     inkscape:current-layer="layer1"
     showgrid="false"
     units="px"
     inkscape:window-width="1600"
     inkscape:window-height="836"
     inkscape:window-x="0"
     inkscape:window-y="27"
     inkscape:window-maximized="1" />
  <metadata
     id="metadata909">
    <rdf:RDF>
      <cc:Work
         rdf:about="">
        <dc:format>image/svg+xml</dc:format>
        <dc:type
           rdf:resource="http://purl.org/dc/dcmitype/StillImage" />
        <dc:title></dc:title>
      </cc:Work>
    </rdf:RDF>
  </metadata>
  <g
     inkscape:label="Capa 1"
     inkscape:groupmode="layer"
     id="layer1"
     transform="translate(0,-281.12497)">
    <path
       style="fill:#ffa500;fill-opacity:1;stroke-width:0.23237872"
       d="m 4.5322687,295.76934 c -0.20537,-0.38308 -0.0449,-0.67475 1.03798,-1.88622 2.7417403,-3.06742 2.6768103,-6.54858 -0.17428,-9.34273 -1.14398,-1.12109 -1.35357,-1.44605 -1.23555,-1.91547 0.3747,-1.49027 3.0384103,0.4001 4.3707303,3.10173 0.68132,1.38158 0.76299,1.75898 0.76299,3.52561 0,1.71346 -0.0904,2.16221 -0.6751,3.35098 -0.80705,1.64083 -2.6350503,3.61927 -3.3440903,3.61927 -0.27486,0 -0.60905,-0.20377 -0.74267,-0.45317 z m -1.47901,-2.02345 c -0.3576,-0.35687 -0.10438,-1.12189 0.64583,-1.95086 1.43757,-1.5885 1.39294,-3.56084 -0.11758,-5.19675 -1.02306,-1.10796 -1.17597,-1.87103 -0.42276,-2.10968 0.64656,-0.20491 1.50832,0.43278 2.44331,1.80788 0.9346503,1.3746 1.1602003,2.81589 0.6921703,4.42309 -0.5918203,2.03229 -2.4751103,3.79084 -3.2409503,3.02632 z m -1.6173701,-2.31112 c -0.28924,-0.2887 -0.1789,-1.1812 0.18313,-1.48113 0.4731401,-0.392 0.4385901,-0.82638 -0.12644,-1.5893 -0.71064996,-0.95953 -0.0796,-1.97402 0.9017601,-1.44971 1.36867,0.73123 1.79386,2.45136 0.92337,3.73554 -0.52585,0.7758 -1.4885801,1.17716 -1.8818301,0.7846 z"
       id="path826-3"
       inkscape:connector-curvature="0"
       sodipodi:nodetypes="cscccscscccccccsccccccccc" />
  </g>
</svg>
